<svg xmlns="http://www.w3.org/2000/svg" viewBox="0 0 750 500"><g id="freepik--background-complete--inject-26"><path d="M208.14,147H81.5V60.39H208.14ZM82.5,146H207.14V61.39H82.5Z" style="fill:#ebebeb"></path><path d="M91.4,66a2.52,2.52,0,1,1-2.52-2.52A2.52,2.52,0,0,1,91.4,66Z" style="fill:#a6a6a6"></path><path d="M101.7,66a2.53,2.53,0,1,1-2.52-2.52A2.52,2.52,0,0,1,101.7,66Z" style="fill:#ebebeb"></path><path d="M112,66a2.52,2.52,0,1,1-2.52-2.52A2.52,2.52,0,0,1,112,66Z" style="fill:#6A6ABA"></path><rect x="82" y="70.41" width="125.64" height="1" style="fill:#ebebeb"></rect><path d="M73.84,151.67a2.79,2.79,0,0,1,2.93,0q.36.23.75.42c.25.14.51.27.77.4a2.78,2.78,0,0,1,1.63,2.41l.11,3.6,11.71-.37-.11-3.59A2.79,2.79,0,0,1,93.1,152a15.21,15.21,0,0,0,1.49-.91,2.76,2.76,0,0,1,2.9-.19l3.16,1.7,5.54-10.33L103,140.6a2.76,2.76,0,0,1-1.45-2.52,17,17,0,0,0-.06-1.75,2.78,2.78,0,0,1,1.29-2.62l3-1.89-6.17-10-3.07,1.9a2.77,2.77,0,0,1-2.91,0q-.36-.22-.75-.42c-.25-.14-.51-.27-.77-.39a2.79,2.79,0,0,1-1.63-2.43l-.11-3.59-11.71.36.11,3.58a2.78,2.78,0,0,1-1.46,2.53c-.51.28-1,.59-1.49.92a2.78,2.78,0,0,1-2.91.19l-3.16-1.69-5.54,10.32,3.16,1.7a2.75,2.75,0,0,1,1.45,2.53A17.06,17.06,0,0,0,69,139.1a2.8,2.8,0,0,1-1.29,2.62l-3,1.89,6.17,9.95Zm2.94-18.49a9.59,9.59,0,1,1,3.93,13A9.61,9.61,0,0,1,76.78,133.18Z" style="fill:#ebebeb"></path><path d="M653.36,259.52a2.77,2.77,0,0,1,2.92,0l.75.43.78.39a2.78,2.78,0,0,1,1.63,2.41l.11,3.6,11.71-.37-.11-3.59a2.77,2.77,0,0,1,1.47-2.52,17.37,17.37,0,0,0,1.48-.92,2.8,2.8,0,0,1,2.91-.19l3.16,1.7,5.54-10.33-3.16-1.69a2.77,2.77,0,0,1-1.45-2.53,16.86,16.86,0,0,0-.06-1.74,2.8,2.8,0,0,1,1.29-2.63l3-1.89-6.17-10-3.07,1.91a2.77,2.77,0,0,1-2.91,0l-.75-.42c-.25-.14-.51-.27-.77-.39a2.77,2.77,0,0,1-1.63-2.42l-.11-3.6-11.71.36.11,3.59a2.76,2.76,0,0,1-1.46,2.52,14.28,14.28,0,0,0-1.49.93,2.78,2.78,0,0,1-2.91.18l-3.16-1.69L643.81,241l3.16,1.69a2.79,2.79,0,0,1,1.45,2.53,17.06,17.06,0,0,0,.06,1.75,2.79,2.79,0,0,1-1.3,2.62l-3,1.89,6.17,10ZM656.3,241a9.59,9.59,0,1,1,3.92,13A9.59,9.59,0,0,1,656.3,241Z" style="fill:#ebebeb"></path><path d="M97.46,182.31a2,2,0,0,1,1,1.82c0,.2,0,.4,0,.6s0,.41,0,.61a1.93,1.93,0,0,1-1,1.8l-2.19,1.26,4.11,7.11,2.18-1.26a1.93,1.93,0,0,1,2,.08c.34.22.7.42,1.06.61a1.94,1.94,0,0,1,1.08,1.73v2.51H114v-2.51a1.94,1.94,0,0,1,1.08-1.73c.36-.19.71-.39,1-.61a1.94,1.94,0,0,1,2-.08l2.18,1.26,4.1-7.11-2.19-1.26a1.94,1.94,0,0,1-1-1.81c0-.2,0-.4,0-.6s0-.4,0-.6a1.94,1.94,0,0,1,1-1.81l2.18-1.26-4.1-7.11-2.17,1.26a2,2,0,0,1-2.05-.07,11.27,11.27,0,0,0-1.06-.62,1.93,1.93,0,0,1-1.08-1.73v-2.51h-8.21v2.51a1.93,1.93,0,0,1-1.08,1.73,10.13,10.13,0,0,0-1.06.62,2,2,0,0,1-2,.07L99.39,174l-4.11,7.11ZM109.85,178a6.73,6.73,0,1,1-6.72,6.73A6.74,6.74,0,0,1,109.85,178Z" style="fill:#ebebeb"></path><path d="M91.66,285c0-1.13.15-4.14.15-5.42,0-5.49-2-8-7.07-8.12-2.4-.15-3.83-1.58-3.83-3.61s1.43-3.46,3.83-3.61c5.12-.23,7.07-2.64,7.07-8.2,0-1.28-.15-4.29-.15-5.42,0-7.29,3.09-12,14.75-14.51a3.25,3.25,0,0,1,2,6.16c-7.3,2.26-8.35,4.59-8.35,9.71,0,1.5.15,4,.15,5.56,0,5.87-2.86,8.73-7.83,10.31,5,1.65,7.83,4.44,7.83,10.3,0,1.58-.15,4.06-.15,5.57,0,5.11,1,7.45,8.35,9.7a3.25,3.25,0,0,1-2,6.17C94.75,297,91.66,292.34,91.66,285Z" style="fill:#ebebeb"></path><path d="M135.74,250.59c0,1.13-.15,4.14-.15,5.42,0,5.56,2,8,7.15,8.2,2.33.15,3.76,1.58,3.76,3.61s-1.43,3.46-3.76,3.61c-5.12.15-7.15,2.63-7.15,8.12,0,1.28.15,4.29.15,5.42,0,7.37-3.08,12-14.74,14.59a3.24,3.24,0,0,1-2-6.17c7.22-2.25,8.28-4.59,8.28-9.7,0-1.51-.15-4-.15-5.57,0-5.86,2.85-8.72,7.82-10.3-5-1.66-7.82-4.44-7.82-10.31,0-1.58.15-4.06.15-5.56,0-5.12-1.06-7.45-8.28-9.71a3.11,3.11,0,0,1-2.18-3.08,3.16,3.16,0,0,1,4.14-3.08C132.66,238.63,135.74,243.3,135.74,250.59Z" style="fill:#ebebeb"></path><path d="M621.19,131.26a4,4,0,0,1-2.81,6.91,4.27,4.27,0,0,1-3-1.15l-18-18.26c-.2-.06-.26-.19-.32-.38a.84.84,0,0,0-.2-.13,2.11,2.11,0,0,1-.19-.51.34.34,0,0,1-.19-.26c-.06-.13-.06-.32-.13-.38s-.13-.26-.13-.32v-.45c0-.13-.06-.19-.06-.39s.06-.25.06-.32v-.44c0-.13.13-.2.13-.26s.07-.32.13-.51.06-.07.06-.13.2-.45.32-.58a.13.13,0,0,1,.13-.13,1.19,1.19,0,0,1,.39-.44l18-18.26a4.17,4.17,0,0,1,5.76,0,4,4,0,0,1,0,5.76L606,115.94Z" style="fill:#ebebeb"></path><path d="M637.53,133.31,653.22,96a3.55,3.55,0,0,1,4.68-1.86,3.45,3.45,0,0,1,1.79,4.55L644,136.06a3.54,3.54,0,0,1-3.27,2.11,3.1,3.1,0,0,1-1.28-.25A3.46,3.46,0,0,1,637.53,133.31Z" style="fill:#ebebeb"></path><path d="M690.7,118.25a.06.06,0,0,1-.06.06,3.18,3.18,0,0,1-.45.45l-18,18.26a4.19,4.19,0,0,1-5.77,0,4.06,4.06,0,0,1,0-5.76l15.18-15.32-15.18-15.31a4.06,4.06,0,0,1,0-5.76,4.18,4.18,0,0,1,5.77,0l18,18.26a3.15,3.15,0,0,1,.45.44c.06,0,.06.13.06.13a5.27,5.27,0,0,1,.32.58c0,.06.07.06.07.13a2.52,2.52,0,0,0,.19.57c0,.07.06.07.06.2v.44c0,.07.07.26.07.32s-.07.26-.07.32v.52c0,.06-.06.06-.06.13a4.11,4.11,0,0,0-.19.57c0,.07-.07.07-.07.19S690.83,118,690.7,118.25Z" style="fill:#ebebeb"></path></g><g id="freepik--Floor--inject-26"><path d="M59.52,348.2c202.12-.62,428.84-.62,631,0-202.12.61-428.84.61-631,0Z" style="fill:#263238"></path></g><g id="freepik--Device--inject-26"><rect x="143.25" y="41.93" width="463.51" height="310.05" style="fill:#dbdbdb"></rect><rect x="146.62" y="45.71" width="456.77" height="302.49" style="fill:#263238"></rect><rect x="82.88" y="424" width="584.24" height="21.48" style="fill:#c7c7c7"></rect><polygon points="82.88 424 143.25 351.98 606.75 351.98 667.12 424 82.88 424" style="fill:#dbdbdb"></polygon><polygon points="606.73 384.63 145.02 384.63 168.69 351.98 583.06 351.98 606.73 384.63" style="fill:#263238"></polygon><polygon points="598.46 373.22 153.29 373.22 154.25 371.89 597.5 371.89 598.46 373.22" style="fill:#37474f"></polygon><polygon points="589.81 361.3 161.94 361.3 162.9 359.96 588.85 359.96 589.81 361.3" style="fill:#37474f"></polygon><polygon points="303.53 415.9 318.49 392.92 432.22 392.92 448.23 415.9 303.53 415.9" style="fill:#263238"></polygon><polygon points="417.85 432.63 333.9 432.63 331.82 424 419.94 424 417.85 432.63" style="fill:#dbdbdb"></polygon><rect x="172.09" y="68.69" width="405.83" height="256.96" style="fill:#37474f"></rect><rect x="172.09" y="68.69" width="405.83" height="9.89" style="fill:#6A6ABA"></rect><path d="M181.39,73.63a1.87,1.87,0,1,1-1.87-1.87A1.86,1.86,0,0,1,181.39,73.63Z" style="fill:#c7c7c7"></path><path d="M189,73.63a1.87,1.87,0,1,1-1.87-1.87A1.86,1.86,0,0,1,189,73.63Z" style="fill:#fff"></path><path d="M196.67,73.63a1.87,1.87,0,1,1-1.87-1.87A1.86,1.86,0,0,1,196.67,73.63Z" style="fill:#455a64"></path><rect x="198.02" y="122.51" width="11.42" height="3.47" style="fill:#ebebeb"></rect><rect x="222.91" y="122.51" width="253.1" height="3.47" style="fill:#ebebeb"></rect><rect x="483.03" y="122.51" width="21.69" height="3.47" style="fill:#6A6ABA"></rect><rect x="198.02" y="138.92" width="11.42" height="3.47" style="fill:#ebebeb"></rect><rect x="234.04" y="138.92" width="85.95" height="3.47" style="fill:#a6a6a6"></rect><rect x="480.07" y="204.58" width="32.51" height="3.47" style="fill:#a6a6a6"></rect><rect x="222.91" y="188.16" width="82.1" height="3.47" style="fill:#a6a6a6"></rect><rect x="234.04" y="155.34" width="57.6" height="3.47" style="fill:#6A6ABA"></rect><rect x="298.03" y="155.34" width="214.1" height="3.47" style="fill:#a6a6a6"></rect><rect x="222.91" y="204.58" width="249.73" height="3.47" style="fill:#6A6ABA"></rect><rect x="325.39" y="138.92" width="176.91" height="3.47" style="fill:#ebebeb"></rect><rect x="198.02" y="155.34" width="11.42" height="3.47" style="fill:#ebebeb"></rect><rect x="198.02" y="171.75" width="11.42" height="3.47" style="fill:#a6a6a6"></rect><rect x="222.91" y="171.75" width="67.48" height="3.47" style="fill:#ebebeb"></rect><rect x="234.04" y="220.99" width="67.48" height="3.47" style="fill:#ebebeb"></rect><rect x="295.06" y="237.41" width="181.03" height="3.47" style="fill:#ebebeb"></rect><rect x="234.04" y="237.41" width="50.72" height="3.47" style="fill:#a6a6a6"></rect><rect x="309.65" y="188.16" width="195.06" height="3.47" style="fill:#ebebeb"></rect><rect x="297.25" y="171.75" width="194.98" height="3.47" style="fill:#6A6ABA"></rect><rect x="198.02" y="188.16" width="11.42" height="3.47" style="fill:#ebebeb"></rect><rect x="198.02" y="204.58" width="11.42" height="3.47" style="fill:#ebebeb"></rect><rect x="198.02" y="220.99" width="11.42" height="3.47" style="fill:#a6a6a6"></rect><rect x="198.02" y="237.41" width="11.42" height="3.47" style="fill:#ebebeb"></rect><rect x="198.02" y="252.31" width="11.42" height="3.47" style="fill:#ebebeb"></rect><rect x="222.91" y="252.31" width="133.88" height="3.47" style="fill:#ebebeb"></rect><path d="M202.54,106.11a.63.63,0,0,1-.44,1.08.67.67,0,0,1-.46-.18l-2.83-2.86s0,0-.05-.06a.07.07,0,0,0,0,0,.26.26,0,0,1,0-.08.05.05,0,0,1,0,0s0,0,0-.06,0,0,0,0v-.07s0,0,0-.06,0,0,0,0v-.07s0,0,0,0,0-.05,0-.08,0,0,0,0a.73.73,0,0,1,0-.09,0,0,0,0,1,0,0,.19.19,0,0,1,.06-.07l2.83-2.86a.65.65,0,0,1,.9,0,.63.63,0,0,1,0,.9l-2.38,2.4Z" style="fill:#6A6ABA"></path><path d="M205.1,106.43l2.46-5.86a.55.55,0,0,1,.73-.29.54.54,0,0,1,.29.71l-2.47,5.87a.55.55,0,0,1-.51.33.48.48,0,0,1-.2,0A.54.54,0,0,1,205.1,106.43Z" style="fill:#6A6ABA"></path><path d="M213.44,104.06h0l-.07.08L210.53,107a.65.65,0,0,1-.9,0,.63.63,0,0,1,0-.9L212,103.7l-2.38-2.4a.63.63,0,0,1,0-.9.65.65,0,0,1,.9,0l2.83,2.86.07.07s0,0,0,0a.9.9,0,0,1,.05.09s0,0,0,0a.47.47,0,0,0,0,.09s0,0,0,0v.07s0,0,0,0,0,0,0,0v.08s0,0,0,0a.92.92,0,0,0,0,.09s0,0,0,0Z" style="fill:#6A6ABA"></path><rect x="364.23" y="244.68" width="1.56" height="18.73" style="fill:#ebebeb"></rect></g><g id="freepik--Character--inject-26"><path d="M232.79,460.85s39.37-17.5,45.85-20.46c13-5.93,36.28-24.2,46.24-30.63,5.82-3.76,1.17-16.47-16.53-14.31s-50.7,19.4-53.54,15.69,43-31.25,49.43-33.47,27.66,6.42,40.49,2,6.14-15.82-4.08-20.11c-13.54-5.69-39.33-9.32-48.82-9.32s-38.69,21.24-38.69,21.24,39.38-15.49,44.25-18.36,28.31-3.32,43.13-8.63,5.14-20.49-19.64-20.27A249.09,249.09,0,0,0,277.42,328c-7,1.06-49.28,29.06-49.28,29.06s8.19-1.77,11.51-2.88,36.3-21.89,40.88-24.31c17.29-9.15,29.52-21.39,24-29.11-4-5.61-27.08,1.56-38.32,8-14.94,8.55-57.29,39.9-57.29,39.9L262,312.83s-4.29-3.56-18.55-.42c-8.43,1.86-43,22.52-48.49,26.71-16.6,12.65-61.24,67.09-61.24,67.09l36.51,46.85Z" style="fill: rgb(235, 148, 129);"></path><path d="M211.4,347.41c12.52-10.46,22.73-22.25,49.38-35,.09,0,0-.27-.1-.25-19,4.86-36.93,20.31-49.69,34.69C210.57,347.38,210.9,347.82,211.4,347.41Z" style="fill:#263238"></path><path d="M230.07,356.81c11.09-6.62,23.92-15.51,37.17-22,6.5-3.19,9.3-3.84,18.61-7.91.09,0,0-.24-.08-.22-8.43,2.14-9.82,1.89-18.87,5.31-11.78,4.45-31.11,18.77-37.21,24.39C229.21,356.82,229.48,357.15,230.07,356.81Z" style="fill:#263238"></path><path d="M250.56,370.55c12-4.84,26.57-13.53,38.95-17.53,3.1-1,7.84-1.64,14.93-1.64.38,0,.85-.42-.05-.58-6-1.1-11.95-1-15.65,0-12.14,3.39-31.6,14.64-38.48,19.26C249.72,370.44,249.93,370.81,250.56,370.55Z" style="fill:#263238"></path><polygon points="232.79 460.86 208.32 499.92 27.72 499.92 133.68 406.21 224.18 396.22 232.79 460.86" style="fill: rgb(235, 148, 129);"></polygon><polygon points="208.32 499.92 214.79 489.58 79.66 453.98 27.72 499.92 208.32 499.92" style="fill:#6A6ABA"></polygon><polygon points="208.32 499.92 214.79 489.58 79.66 453.98 27.72 499.92 208.32 499.92" style="opacity:0.1"></polygon><polygon points="28.89 498.88 33.97 494.38 33.97 499.91 28.89 499.91 28.89 498.88" style="opacity:0.1"></polygon><polygon points="207.01 487.53 207.01 499.91 201.93 499.91 201.93 486.19 207.01 487.53" style="opacity:0.1"></polygon><polygon points="172.4 478.41 188.94 482.77 172.4 482.77 172.4 499.91 167.32 499.91 167.32 482.77 137.79 482.77 137.79 499.91 132.71 499.91 132.71 482.77 103.18 482.77 103.18 499.91 98.1 499.91 98.1 482.77 68.58 482.77 68.58 499.91 63.5 499.91 63.5 482.77 47.1 482.77 52.85 477.69 63.5 477.69 63.5 468.27 68.58 463.78 68.58 477.69 98.1 477.69 98.1 458.84 103.18 460.18 103.18 477.69 132.71 477.69 132.71 467.96 137.79 469.29 137.79 477.69 167.32 477.69 167.32 477.07 169.66 477.69 172.4 477.69 172.4 478.41" style="opacity:0.1"></polygon><polygon points="55.91 470.07 214.79 495.34 229.45 472.73 87.81 441.33 55.91 470.07" style="fill:#6A6ABA"></polygon><path d="M501.44,440.23s-35.88-17.8-42.61-20.12c-13.48-4.66-34.16-24.14-44.7-29.58-6.15-3.18-2.74-16.28,15.09-15.83s37.61,15.2,38.49,13.72c2.41-4-38.79-22.53-45.39-24.12s-27.22,3.82-40.42.65-7.63-15.15,2.13-20.41c12.93-7,38.56-7.82,48-8.74s40.55,17.43,40.55,17.43-40.68-11.63-45.81-14-28.5-.58-43.76-4.44-7.08-19.9,17.6-22.06a249.35,249.35,0,0,1,43.63-.38c7.11.38,51.84,24.19,51.84,24.19s-8.32-1-11.73-1.76-38.24-18.3-43-20.27C423.24,307,409.9,296,414.68,287.81c3.48-6,27.1-1.05,38.9,4.27,15.7,7.08,60.86,34.21,60.86,34.21l-60.15-31.9s2.77-5.71,11.36-4.88c30.69,3,55.91,22.26,61.78,25.91,17.74,11,67.41,60.9,67.41,60.9L563.78,424Z" style="fill: rgb(235, 148, 129);"></path><path d="M515,322.39c-13.89-8.24-31.7-19.19-59.42-29.52-.09,0-.06-.2,0-.18,18.93,4.21,44.78,16.38,59.66,29.33C515.77,322.41,515.57,322.71,515,322.39Z" style="fill:#263238"></path><path d="M494.14,336.4c-11.67-5.51-25.3-13.13-39.11-18.32-6.78-2.55-9.62-2.93-19.28-6.09-.1,0-.05-.24.06-.22,8.6,1.32,9.95.93,19.29,3.47,12.15,3.3,32.77,15.69,39.38,20.7C495,336.33,494.76,336.69,494.14,336.4Z" style="fill:#263238"></path><path d="M475.06,352.06c-12.38-3.68-27.74-10.93-40.45-13.71-3.18-.7-15.75-1.19-22.81-.51-.38,0-.88-.33,0-.58,5.9-1.68,19.6-1.86,23.38-1.19,12.4,2.21,32.86,11.54,40.15,15.48C475.9,351.86,475.72,352.25,475.06,352.06Z" style="fill:#263238"></path><polygon points="722.28 500.08 594.84 376.32 514.69 379.82 501.44 440.23 537.67 500.08 722.28 500.08" style="fill: rgb(235, 148, 129);"></polygon><polygon points="537.67 500.08 516.05 464.37 627.33 407.87 722.28 500.08 537.67 500.08" style="fill:#6A6ABA"></polygon><polygon points="537.67 500.08 516.05 464.37 627.33 407.87 722.28 500.08 537.67 500.08" style="opacity:0.1"></polygon><path d="M633.18,413.55h-17l10-5.08H628l4.16,4Zm30.4,29.53H557.81v.09l-9.83,5H668.81l-2.1-2Zm35.64,34.61H524.11l3.08,5.08H704.45l-3.13-3Zm0,0-3-2.89v25.29h5.08V479.73Zm-35.64-34.61-2-1.9v58.91h5.08v-54ZM628,408.47l-.62-.6L627,408v92.06h5.09V412.51Zm-35.53,17.12v74.5h5.08V423ZM558,443.08h-.17v57h5.08v-59.5ZM523.2,460.74v15.44l.91,1.51,3.08,5.08,1.09,1.81V458.16Z" style="opacity:0.1"></path><polygon points="507.5 461.2 526.79 489.58 661.8 434.74 625.22 402.01 507.5 461.2" style="fill:#6A6ABA"></polygon></g></svg>